# xmcd
#
# Track frame offsets:
#   150
#   12981
#   32056
#   49204
#   63589
#   82108
#   97739
#   113495
#   127798
#   143084
#   162582
#   178726
#
# Disc length: 2553 seconds
#
# Revision: 0
# Processed by: cddbd v1.5.2PL0 Copyright (c) Steve Scherf et al.
# Submitted via: GXTranscoder 2.0.1939
#
DISCID=9909f70c
DTITLE=Soha - D'ici et D'Ailleurs
DYEAR=2007
DGENRE=R and B
TTITLE0=Tourbillon
TTITLE1=C'est Bien Mieux Comme Ça
TTITLE2=Ma Mélancolie
TTITLE3=On Ne Saura Jamais
TTITLE4=Mil Pasos
TTITLE5=Dream Club
TTITLE6=Vu de Là-Bas
TTITLE7=Le Café Bleu
TTITLE8=Mon Rêve à Moi
TTITLE9=Drôle d'Idée
TTITLE10=Rue de la Croix Nivert
TTITLE11=Heureuse
EXTD=
EXTT0=
EXTT1=
EXTT2=
EXTT3=
EXTT4=
EXTT5=
EXTT6=
EXTT7=
EXTT8=
EXTT9=
EXTT10=
EXTT11=
PLAYORDER=
